<svg xmlns="http://www.w3.org/2000/svg" width="1200" height="800" viewBox="0 0 1200 800" role="img" aria-label="A wrapped parcel containing a git graph, moved by sneakernet"><defs><linearGradient id="g1" x1="0.750" y1="0.067" x2="0.250" y2="0.933"><stop offset="0" stop-color="#fff3ec"/><stop offset="1" stop-color="#ffdcc7"/></linearGradient><radialGradient id="g2"><stop offset="0" stop-color="#f97316"/><stop offset="1" stop-color="#ffdcc7"/></radialGradient><radialGradient id="g3"><stop offset="0" stop-color="#f59e0b"/><stop offset="1" stop-color="#ffdcc7"/></radialGradient><linearGradient id="g4" x1="0.750" y1="0.067" x2="0.250" y2="0.933"><stop offset="0" stop-color="#fb923c"/><stop offset="1" stop-color="#f97316"/></linearGradient><linearGradient id="g5" x1="0.500" y1="0.000" x2="0.500" y2="1.000"><stop offset="0" stop-color="#e11d48"/><stop offset="1" stop-color="#fb7185"/></linearGradient><linearGradient id="g6" x1="0.500" y1="0.000" x2="0.500" y2="1.000"><stop offset="0" stop-color="#e11d48"/><stop offset="1" stop-color="#fb7185"/></linearGradient><linearGradient id="g7" x1="0.500" y1="0.000" x2="0.500" y2="1.000"><stop offset="0" stop-color="#e11d48"/><stop offset="1" stop-color="#fb7185"/></linearGradient><linearGradient id="g8" x1="0.500" y1="0.000" x2="0.500" y2="1.000"><stop offset="0" stop-color="#e11d48"/><stop offset="1" stop-color="#fb7185"/></linearGradient><linearGradient id="g9" x1="0.500" y1="0.000" x2="0.500" y2="1.000"><stop offset="0" stop-color="#e11d48"/><stop offset="1" stop-color="#fb7185"/></linearGradient></defs><rect width="1200" height="800" fill="url(#g1)"/><g stroke="#7c2d12" stroke-width="1" opacity="0.05"><line x1="100" y1="0" x2="100" y2="800"/><line x1="200" y1="0" x2="200" y2="800"/><line x1="300" y1="0" x2="300" y2="800"/><line x1="400" y1="0" x2="400" y2="800"/><line x1="500" y1="0" x2="500" y2="800"/><line x1="600" y1="0" x2="600" y2="800"/><line x1="700" y1="0" x2="700" y2="800"/><line x1="800" y1="0" x2="800" y2="800"/><line x1="900" y1="0" x2="900" y2="800"/><line x1="1000" y1="0" x2="1000" y2="800"/><line x1="1100" y1="0" x2="1100" y2="800"/><line x1="0" y1="100" x2="1200" y2="100"/><line x1="0" y1="200" x2="1200" y2="200"/><line x1="0" y1="300" x2="1200" y2="300"/><line x1="0" y1="400" x2="1200" y2="400"/><line x1="0" y1="500" x2="1200" y2="500"/><line x1="0" y1="600" x2="1200" y2="600"/><line x1="0" y1="700" x2="1200" y2="700"/></g><circle cx="250" cy="170" r="300" fill="url(#g2)" opacity="0.12"/><circle cx="1000" cy="640" r="340" fill="url(#g3)" opacity="0.10"/><ellipse cx="600.0" cy="586.0" rx="230.0" ry="26.0" fill="#7c2d12" opacity="0.12"/><rect x="400.0" y="250.0" width="400.0" height="320.0" rx="22.0" fill="url(#g4)"/><rect x="574.0" y="250.0" width="52.0" height="320.0" rx="0.0" fill="url(#g5)"/><rect x="400.0" y="384.0" width="400.0" height="52.0" rx="0.0" fill="url(#g6)"/><circle cx="600.0" cy="410.0" r="30.0" fill="url(#g7)"/><path d="M600.0 410.0 l-70 -34 l0 68 Z" fill="url(#g8)"/><path d="M600.0 410.0 l70 -34 l0 68 Z" fill="url(#g9)"/><rect x="440.0" y="304.0" width="120.0" height="90.0" rx="10.0" fill="#ffffff" opacity="0.92"/><line x1="464.0" y1="349.0" x2="536.0" y2="349.0" stroke="#f97316" stroke-width="6" stroke-linecap="round"/><circle cx="464.0" cy="349.0" r="10.0" fill="#f97316"/><circle cx="500.0" cy="349.0" r="10.0" fill="#f97316"/><circle cx="536.0" cy="349.0" r="10.0" fill="#f97316"/><line x1="360.0" y1="390.0" x2="310.0" y2="390.0" stroke="#7c2d12" stroke-width="7" stroke-linecap="round" stroke-dasharray="2 14"/><line x1="316.0" y1="410.0" x2="266.0" y2="410.0" stroke="#7c2d12" stroke-width="7" stroke-linecap="round" stroke-dasharray="2 14"/><line x1="272.0" y1="430.0" x2="222.0" y2="430.0" stroke="#7c2d12" stroke-width="7" stroke-linecap="round" stroke-dasharray="2 14"/><text x="600.0" y="660.0" font-family="'Courier New', monospace" font-size="40" font-weight="700" fill="#7c2d12" text-anchor="middle">git bundle</text></svg>