<svg xmlns="http://www.w3.org/2000/svg" width="1200" height="800" viewBox="0 0 1200 800" role="img" aria-label="Recording and replaying a git conflict resolution"><defs><linearGradient id="g1" x1="0.750" y1="0.067" x2="0.250" y2="0.933"><stop offset="0" stop-color="#fff3ec"/><stop offset="1" stop-color="#ffdcc7"/></linearGradient><radialGradient id="g2"><stop offset="0" stop-color="#f97316"/><stop offset="1" stop-color="#ffdcc7"/></radialGradient><radialGradient id="g3"><stop offset="0" stop-color="#f59e0b"/><stop offset="1" stop-color="#ffdcc7"/></radialGradient><linearGradient id="g4" x1="0.000" y1="0.500" x2="1.000" y2="0.500"><stop offset="0" stop-color="#6366f1"/><stop offset="1" stop-color="#a5b4fc"/></linearGradient><linearGradient id="g5" x1="1.000" y1="0.500" x2="0.000" y2="0.500"><stop offset="0" stop-color="#e11d48"/><stop offset="1" stop-color="#fb7185"/></linearGradient><linearGradient id="g6" x1="0.500" y1="0.000" x2="0.500" y2="1.000"><stop offset="0" stop-color="#f59e0b"/><stop offset="1" stop-color="#f97316"/></linearGradient><linearGradient id="g7" x1="0.500" y1="0.000" x2="0.500" y2="1.000"><stop offset="0" stop-color="#ea580c"/><stop offset="1" stop-color="#f97316"/></linearGradient></defs><rect width="1200" height="800" fill="url(#g1)"/><g stroke="#7c2d12" stroke-width="1" opacity="0.05"><line x1="100" y1="0" x2="100" y2="800"/><line x1="200" y1="0" x2="200" y2="800"/><line x1="300" y1="0" x2="300" y2="800"/><line x1="400" y1="0" x2="400" y2="800"/><line x1="500" y1="0" x2="500" y2="800"/><line x1="600" y1="0" x2="600" y2="800"/><line x1="700" y1="0" x2="700" y2="800"/><line x1="800" y1="0" x2="800" y2="800"/><line x1="900" y1="0" x2="900" y2="800"/><line x1="1000" y1="0" x2="1000" y2="800"/><line x1="1100" y1="0" x2="1100" y2="800"/><line x1="0" y1="100" x2="1200" y2="100"/><line x1="0" y1="200" x2="1200" y2="200"/><line x1="0" y1="300" x2="1200" y2="300"/><line x1="0" y1="400" x2="1200" y2="400"/><line x1="0" y1="500" x2="1200" y2="500"/><line x1="0" y1="600" x2="1200" y2="600"/><line x1="0" y1="700" x2="1200" y2="700"/></g><circle cx="250" cy="170" r="300" fill="url(#g2)" opacity="0.12"/><circle cx="1000" cy="640" r="340" fill="url(#g3)" opacity="0.10"/><path d="M200 250 C 360 250, 400 400, 500 400" fill="none" stroke="url(#g4)" stroke-width="10" stroke-linecap="round" stroke-linejoin="round"/><path d="M200 550 C 360 550, 400 400, 500 400" fill="none" stroke="url(#g5)" stroke-width="10" stroke-linecap="round" stroke-linejoin="round"/><circle cx="200.0" cy="250.0" r="18.0" fill="url(#g4)"/><circle cx="200.0" cy="550.0" r="18.0" fill="url(#g5)"/><path d="M560.0 334.0 L577.6 375.7 L622.8 379.6 L588.5 409.3 L598.8 453.4 L560.0 430.0 L521.2 453.4 L531.5 409.3 L497.2 379.6 L542.4 375.7 Z" fill="url(#g6)"/><text x="560.0" y="412.0" font-family="Georgia, serif" font-size="44" font-weight="800" fill="#ffffff" text-anchor="middle">!</text><path d="M680 400 A 120 120 0 1 1 560 280" fill="none" stroke="#7c2d12" stroke-width="7" stroke-linecap="round" stroke-linejoin="round"/><path d="M560.0 280.0 L582.8 267.5 L582.8 292.5 Z" fill="#7c2d12"/><rect x="900.0" y="340.0" width="120.0" height="120.0" rx="18.0" fill="url(#g7)"/><line x1="884.0" y1="368.0" x2="900.0" y2="368.0" stroke="#7c2d12" stroke-width="6" stroke-linecap="round"/><line x1="1020.0" y1="368.0" x2="1036.0" y2="368.0" stroke="#7c2d12" stroke-width="6" stroke-linecap="round"/><line x1="884.0" y1="400.0" x2="900.0" y2="400.0" stroke="#7c2d12" stroke-width="6" stroke-linecap="round"/><line x1="1020.0" y1="400.0" x2="1036.0" y2="400.0" stroke="#7c2d12" stroke-width="6" stroke-linecap="round"/><line x1="884.0" y1="432.0" x2="900.0" y2="432.0" stroke="#7c2d12" stroke-width="6" stroke-linecap="round"/><line x1="1020.0" y1="432.0" x2="1036.0" y2="432.0" stroke="#7c2d12" stroke-width="6" stroke-linecap="round"/><text x="960.0" y="414.0" font-family="sans-serif" font-size="56" font-weight="700" fill="#ffffff" text-anchor="middle">↻</text><line x1="690.0" y1="400.0" x2="876.0" y2="400.0" stroke="#7c2d12" stroke-width="6" stroke-linecap="round" stroke-dasharray="2 12"/></svg>