<svg xmlns="http://www.w3.org/2000/svg" width="1200" height="800" viewBox="0 0 1200 800" role="img" aria-label="A fresh blank page with a sunrise, marking a new blog"><defs><linearGradient id="g1" x1="0.750" y1="0.067" x2="0.250" y2="0.933"><stop offset="0" stop-color="#ecfdf5"/><stop offset="1" stop-color="#cdf4e2"/></linearGradient><radialGradient id="g2"><stop offset="0" stop-color="#0d9488"/><stop offset="1" stop-color="#cdf4e2"/></radialGradient><radialGradient id="g3"><stop offset="0" stop-color="#f59e0b"/><stop offset="1" stop-color="#cdf4e2"/></radialGradient><radialGradient id="g4"><stop offset="0" stop-color="#fef3c7"/><stop offset="1" stop-color="#cdf4e2"/></radialGradient><linearGradient id="g5" x1="0.500" y1="0.000" x2="0.500" y2="1.000"><stop offset="0" stop-color="#0d9488"/><stop offset="1" stop-color="#10b981"/></linearGradient><linearGradient id="g6" x1="0.500" y1="0.000" x2="0.500" y2="1.000"><stop offset="0" stop-color="#0d9488"/><stop offset="1" stop-color="#10b981"/></linearGradient></defs><rect width="1200" height="800" fill="url(#g1)"/><g stroke="#064e3b" stroke-width="1" opacity="0.05"><line x1="100" y1="0" x2="100" y2="800"/><line x1="200" y1="0" x2="200" y2="800"/><line x1="300" y1="0" x2="300" y2="800"/><line x1="400" y1="0" x2="400" y2="800"/><line x1="500" y1="0" x2="500" y2="800"/><line x1="600" y1="0" x2="600" y2="800"/><line x1="700" y1="0" x2="700" y2="800"/><line x1="800" y1="0" x2="800" y2="800"/><line x1="900" y1="0" x2="900" y2="800"/><line x1="1000" y1="0" x2="1000" y2="800"/><line x1="1100" y1="0" x2="1100" y2="800"/><line x1="0" y1="100" x2="1200" y2="100"/><line x1="0" y1="200" x2="1200" y2="200"/><line x1="0" y1="300" x2="1200" y2="300"/><line x1="0" y1="400" x2="1200" y2="400"/><line x1="0" y1="500" x2="1200" y2="500"/><line x1="0" y1="600" x2="1200" y2="600"/><line x1="0" y1="700" x2="1200" y2="700"/></g><circle cx="250" cy="170" r="300" fill="url(#g2)" opacity="0.12"/><circle cx="1000" cy="640" r="340" fill="url(#g3)" opacity="0.10"/><circle cx="600.0" cy="470.0" r="210.0" fill="url(#g4)" opacity="0.6"/><path d="M450 470 A 150 150 0 0 1 750 470" fill="none" stroke="#f59e0b" stroke-width="6" stroke-linecap="round" stroke-linejoin="round" opacity="0.5"/><path d="M400 470 A 200 200 0 0 1 800 470" fill="none" stroke="#f59e0b" stroke-width="6" stroke-linecap="round" stroke-linejoin="round" opacity="0.38"/><path d="M350 470 A 250 250 0 0 1 850 470" fill="none" stroke="#f59e0b" stroke-width="6" stroke-linecap="round" stroke-linejoin="round" opacity="0.26"/><rect x="430.0" y="250.0" width="300.0" height="380.0" rx="16.0" fill="#ffffff" opacity="0.45" transform="rotate(-8 580 440)"/><ellipse cx="620.0" cy="634.0" rx="150.0" ry="20.0" fill="#064e3b" opacity="0.1"/><rect x="470.0" y="220.0" width="300.0" height="400.0" rx="16.0" fill="#ffffff"/><rect x="470.0" y="220.0" width="300.0" height="60.0" rx="16.0" fill="url(#g5)"/><rect x="470.0" y="260.0" width="300.0" height="20.0" rx="0.0" fill="url(#g6)"/><line x1="500.0" y1="350.0" x2="740.0" y2="350.0" stroke="#064e3b" stroke-width="7" stroke-linecap="round" stroke-dasharray="2 12"/><line x1="500.0" y1="402.0" x2="670.0" y2="402.0" stroke="#064e3b" stroke-width="7" stroke-linecap="round" stroke-dasharray="2 12"/><line x1="500.0" y1="454.0" x2="740.0" y2="454.0" stroke="#064e3b" stroke-width="7" stroke-linecap="round" stroke-dasharray="2 12"/><line x1="500.0" y1="506.0" x2="670.0" y2="506.0" stroke="#064e3b" stroke-width="7" stroke-linecap="round" stroke-dasharray="2 12"/><line x1="500.0" y1="558.0" x2="740.0" y2="558.0" stroke="#064e3b" stroke-width="7" stroke-linecap="round" stroke-dasharray="2 12"/><text x="770.0" y="250.0" font-family="sans-serif" font-size="60" font-weight="700" fill="#f59e0b" text-anchor="middle">✦</text></svg>